<svg width="17" height="17" viewBox="0 0 17 17" fill="none" xmlns="http://www.w3.org/2000/svg">
<path d="M9.4158 8.05412L15.7158 1.7248C15.9041 1.53532 16.0099 1.27833 16.0099 1.01037C16.0099 0.742401 15.9041 0.48541 15.7158 0.29593C15.5275 0.106449 15.2721 0 15.0058 0C14.7395 0 14.4841 0.106449 14.2958 0.29593L8.0058 6.6353L1.7158 0.29593C1.52749 0.106449 1.2721 2.37912e-07 1.0058 2.39909e-07C0.739497 2.41905e-07 0.484102 0.106449 0.295798 0.29593C0.107495 0.48541 0.00170684 0.742401 0.00170684 1.01037C0.00170684 1.27833 0.107495 1.53532 0.295798 1.7248L6.5958 8.05412L0.295798 14.3834C0.20207 14.477 0.127676 14.5883 0.0769072 14.7109C0.0261385 14.8335 0 14.965 0 15.0979C0 15.2307 0.0261385 15.3622 0.0769072 15.4848C0.127676 15.6075 0.20207 15.7188 0.295798 15.8123C0.388761 15.9066 0.499362 15.9815 0.621222 16.0326C0.743081 16.0837 0.873786 16.11 1.0058 16.11C1.13781 16.11 1.26852 16.0837 1.39038 16.0326C1.51223 15.9815 1.62284 15.9066 1.7158 15.8123L8.0058 9.47293L14.2958 15.8123C14.3888 15.9066 14.4994 15.9815 14.6212 16.0326C14.7431 16.0837 14.8738 16.11 15.0058 16.11C15.1378 16.11 15.2685 16.0837 15.3904 16.0326C15.5122 15.9815 15.6228 15.9066 15.7158 15.8123C15.8095 15.7188 15.8839 15.6075 15.9347 15.4848C15.9855 15.3622 16.0116 15.2307 16.0116 15.0979C16.0116 14.965 15.9855 14.8335 15.9347 14.7109C15.8839 14.5883 15.8095 14.477 15.7158 14.3834L9.4158 8.05412Z" fill="#F04E98"/>
</svg>
