<svg width="475" height="373" viewBox="0 0 475 373" fill="none" xmlns="http://www.w3.org/2000/svg">
<g clip-path="url(#clip0_8_2)">
<path d="M208.764 140.872L315.005 55.779L315.498 57.028L209.631 141.821L208.764 140.872Z" fill="#2F2E41"/>
<path d="M324.041 75.0372C332.64 75.0372 339.611 68.5096 339.611 60.4575C339.611 52.4053 332.64 45.8777 324.041 45.8777C315.442 45.8777 308.471 52.4053 308.471 60.4575C308.471 68.5096 315.442 75.0372 324.041 75.0372Z" fill="#344383"/>
<path d="M455.272 92.7421H313.108C312.498 92.7427 311.895 92.6309 311.332 92.413C310.769 92.1952 310.257 91.8755 309.826 91.4723C309.395 91.069 309.053 90.5902 308.819 90.0631C308.586 89.536 308.466 88.9711 308.466 88.4005C308.466 87.8299 308.586 87.265 308.819 86.7379C309.053 86.2108 309.395 85.732 309.826 85.3288C310.257 84.9255 310.769 84.6058 311.332 84.388C311.895 84.1701 312.498 84.0583 313.108 84.059H455.272C455.881 84.0583 456.485 84.1701 457.048 84.388C457.611 84.6058 458.123 84.9255 458.554 85.3288C458.985 85.732 459.327 86.2108 459.561 86.7379C459.794 87.265 459.914 87.8299 459.914 88.4005C459.914 88.9711 459.794 89.536 459.561 90.0631C459.327 90.5902 458.985 91.069 458.554 91.4723C458.123 91.8755 457.611 92.1952 457.048 92.413C456.485 92.6309 455.881 92.7427 455.272 92.7421Z" fill="#344383"/>
<path d="M455.272 109.898H313.108C311.878 109.898 310.699 109.44 309.829 108.626C308.96 107.812 308.471 106.707 308.471 105.556C308.471 104.404 308.96 103.3 309.829 102.486C310.699 101.672 311.878 101.214 313.108 101.214H455.272C456.502 101.214 457.681 101.672 458.551 102.486C459.42 103.3 459.909 104.404 459.909 105.556C459.909 106.707 459.42 107.812 458.551 108.626C457.681 109.44 456.502 109.898 455.272 109.898Z" fill="#344383"/>
<path d="M374.733 127.053H313.108C311.878 127.053 310.699 126.596 309.829 125.782C308.96 124.967 308.471 123.863 308.471 122.712C308.471 121.56 308.96 120.456 309.829 119.641C310.699 118.827 311.878 118.37 313.108 118.37H374.733C375.962 118.37 377.142 118.827 378.011 119.641C378.881 120.456 379.369 121.56 379.369 122.712C379.369 123.863 378.881 124.967 378.011 125.782C377.142 126.596 375.962 127.053 374.733 127.053Z" fill="#344383"/>
<path d="M350.283 181.025C356.177 181.025 360.955 176.551 360.955 171.032C360.955 165.513 356.177 161.039 350.283 161.039C344.389 161.039 339.611 165.513 339.611 171.032C339.611 176.551 344.389 181.025 350.283 181.025Z" fill="#E6E7E8"/>
<path d="M440.232 193.161H342.789C342.371 193.161 341.958 193.085 341.572 192.935C341.186 192.786 340.835 192.567 340.539 192.291C340.244 192.014 340.009 191.686 339.849 191.325C339.689 190.963 339.607 190.576 339.607 190.185C339.607 189.794 339.689 189.406 339.849 189.045C340.009 188.684 340.244 188.356 340.539 188.079C340.835 187.803 341.186 187.584 341.572 187.434C341.958 187.285 342.371 187.208 342.789 187.209H440.232C440.65 187.208 441.064 187.285 441.45 187.434C441.836 187.584 442.187 187.803 442.482 188.079C442.778 188.356 443.012 188.684 443.172 189.045C443.332 189.406 443.415 189.794 443.415 190.185C443.415 190.576 443.332 190.963 443.172 191.325C443.012 191.686 442.778 192.014 442.482 192.291C442.187 192.567 441.836 192.786 441.45 192.935C441.064 193.085 440.65 193.161 440.232 193.161Z" fill="#E6E7E8"/>
<path d="M366.991 204.92H342.789C341.947 204.918 341.14 204.604 340.545 204.046C339.95 203.488 339.616 202.732 339.616 201.944C339.616 201.155 339.95 200.399 340.545 199.841C341.14 199.283 341.947 198.969 342.789 198.968H366.991C367.833 198.969 368.64 199.283 369.235 199.841C369.83 200.399 370.165 201.155 370.165 201.944C370.165 202.732 369.83 203.488 369.235 204.046C368.64 204.604 367.833 204.918 366.991 204.92Z" fill="#E6E7E8"/>
<path d="M316.222 280.961C322.116 280.961 326.894 276.487 326.894 270.968C326.894 265.448 322.116 260.974 316.222 260.974C310.328 260.974 305.55 265.448 305.55 270.968C305.55 276.487 310.328 280.961 316.222 280.961Z" fill="#E6E7E8"/>
<path d="M406.171 293.096H308.728C308.31 293.097 307.897 293.02 307.511 292.871C307.125 292.722 306.774 292.503 306.478 292.226C306.182 291.95 305.948 291.622 305.788 291.26C305.628 290.899 305.546 290.512 305.546 290.12C305.546 289.729 305.628 289.342 305.788 288.981C305.948 288.619 306.182 288.291 306.478 288.015C306.774 287.738 307.125 287.519 307.511 287.37C307.897 287.221 308.31 287.144 308.728 287.145H406.171C406.589 287.144 407.003 287.221 407.389 287.37C407.775 287.519 408.126 287.738 408.421 288.015C408.717 288.291 408.951 288.619 409.111 288.981C409.271 289.342 409.354 289.729 409.354 290.12C409.354 290.512 409.271 290.899 409.111 291.26C408.951 291.622 408.717 291.95 408.421 292.226C408.126 292.503 407.775 292.722 407.389 292.871C407.003 293.02 406.589 293.097 406.171 293.096Z" fill="#E6E7E8"/>
<path d="M367.282 304.855H308.728C307.885 304.855 307.077 304.542 306.481 303.984C305.885 303.425 305.55 302.669 305.55 301.879C305.55 301.09 305.885 300.333 306.481 299.775C307.077 299.217 307.885 298.903 308.728 298.903H367.282C368.125 298.903 368.933 299.217 369.529 299.775C370.125 300.333 370.46 301.09 370.46 301.879C370.46 302.669 370.125 303.425 369.529 303.984C368.933 304.542 368.125 304.855 367.282 304.855Z" fill="#E6E7E8"/>
<path d="M350.967 316.614H308.728C307.885 316.614 307.077 316.301 306.481 315.742C305.885 315.184 305.55 314.427 305.55 313.638C305.55 312.849 305.885 312.092 306.481 311.534C307.077 310.976 307.885 310.662 308.728 310.662H350.967C351.81 310.662 352.619 310.976 353.215 311.534C353.811 312.092 354.146 312.849 354.146 313.638C354.146 314.427 353.811 315.184 353.215 315.742C352.619 316.301 351.81 316.614 350.967 316.614Z" fill="#E6E7E8"/>
<path d="M27.597 349.893C10.9303 342.497 -1.48392 327.618 0.45263 311.266C15.4049 322.604 35.7619 328.935 56.7772 328.783C64.9624 328.724 74.1294 327.945 80.0774 332.246C83.7785 334.922 85.448 339.171 85.659 343.406C85.8698 347.641 84.7734 351.927 83.6832 356.158L84.0147 357.16C64.4458 358.327 44.2638 357.288 27.597 349.893Z" fill="#F2F2F2"/>
<path d="M0.863076 311.226C7.30914 323.004 18.4851 332.82 32.3742 338.566C35.4175 339.896 38.6578 340.787 41.9854 341.21C45.3742 341.542 48.7989 341.123 51.9828 339.987C55.0014 338.972 57.9769 337.651 61.1783 337.25C62.7457 337.045 64.3411 337.138 65.8691 337.524C67.3971 337.91 68.8264 338.58 70.0713 339.495C73.0295 341.649 74.794 344.63 76.3929 347.604C78.1683 350.905 79.9472 354.363 83.4235 356.613C83.8447 356.885 83.2581 357.453 82.8375 357.18C76.7893 353.266 75.9165 346.186 71.1106 341.445C68.868 339.232 65.7554 337.628 62.0192 337.886C58.7522 338.112 55.6826 339.472 52.6347 340.52C49.5358 341.666 46.2105 342.177 42.8829 342.019C39.5281 341.742 36.243 340.96 33.1546 339.702C26.4391 337.085 20.2226 333.463 14.748 328.978C8.69977 324.08 3.70679 318.145 0.0377056 311.492C-0.18496 311.085 0.641908 310.822 0.863116 311.226L0.863076 311.226Z" fill="white"/>
<path d="M27.7216 336.906C25.9671 338.844 23.6111 340.222 20.9813 340.848C18.3515 341.474 15.5787 341.317 13.0488 340.399C12.5637 340.208 12.9598 339.542 13.4456 339.733C15.7994 340.592 18.3815 340.738 20.8288 340.151C23.276 339.565 25.4652 338.274 27.0886 336.462C27.4295 336.074 28.0605 336.52 27.7216 336.906L27.7216 336.906Z" fill="white"/>
<path d="M50.5169 340.664C50.1941 338.364 49.3546 336.153 48.0537 334.178C46.7529 332.204 45.0201 330.509 42.9695 329.206C42.5496 328.932 43.136 328.365 43.5554 328.639C45.6862 329.998 47.4851 331.765 48.8336 333.823C50.1821 335.881 51.0495 338.183 51.3788 340.577C51.4384 341.034 50.5762 341.118 50.5169 340.664L50.5169 340.664Z" fill="white"/>
<path d="M9.68924 323.579C10.4907 323.003 11.1216 322.244 11.5219 321.375C11.9223 320.506 12.0789 319.555 11.9769 318.613C11.9103 318.158 12.7726 318.074 12.8388 318.526C12.9464 319.567 12.7723 320.616 12.3324 321.577C11.8926 322.538 11.2012 323.379 10.3222 324.024C10.2429 324.097 10.1396 324.143 10.0289 324.154C9.91826 324.165 9.80683 324.141 9.71274 324.085C9.67192 324.056 9.63847 324.019 9.61473 323.976C9.59098 323.933 9.57752 323.886 9.57529 323.838C9.57305 323.789 9.58209 323.741 9.60177 323.697C9.62145 323.652 9.65131 323.612 9.68924 323.579V323.579Z" fill="white"/>
<path d="M55.4414 276.694C55.4928 276.976 55.5442 277.258 55.602 277.543C56.3152 281.33 57.4048 285.047 58.8566 288.644C58.9634 288.924 59.0767 289.206 59.1932 289.482C62.8647 298.192 68.4477 306.083 75.5812 312.645C78.4872 315.326 81.6217 317.781 84.9536 319.985C89.5979 323.062 94.9581 326.069 97.8972 330.215C98.2088 330.643 98.4879 331.09 98.7323 331.555L85.4908 356.642C85.4276 356.689 85.3708 356.738 85.3075 356.785L84.8318 357.803C84.6477 357.699 84.4598 357.587 84.2758 357.483C84.1686 357.423 84.0645 357.358 83.9574 357.298C83.8869 357.256 83.8165 357.214 83.7497 357.18C83.7262 357.166 83.7028 357.152 83.6859 357.14C83.6191 357.106 83.562 357.068 83.5018 357.036C82.4492 356.415 81.4006 355.787 80.356 355.151C80.3494 355.149 80.3494 355.149 80.3457 355.141C72.4032 350.278 64.9331 344.783 58.7958 338.442C58.6112 338.252 58.4199 338.059 58.2414 337.857C55.5133 335.007 53.0701 331.93 50.9424 328.663C49.7959 326.886 48.7602 325.048 47.8404 323.16C45.48 318.28 44.0814 313.041 43.7121 307.696C42.9642 296.988 46.3564 285.915 54.7898 277.344C55.0058 277.125 55.2188 276.911 55.4414 276.694Z" fill="#F2F2F2"/>
<path d="M55.7801 276.865C52.0917 290.109 53.3626 304.077 59.6075 315.963C60.9063 318.602 62.6955 321.004 64.8917 323.058C67.2443 325.077 70.1363 326.462 73.2613 327.067C76.2545 327.731 79.4372 328.112 82.1244 329.388C83.443 330.006 84.5866 330.908 85.4617 332.019C86.3368 333.13 86.9186 334.42 87.1595 335.782C87.817 339.102 86.9831 342.522 86.0305 345.851C84.9728 349.548 83.8052 353.378 84.7813 357.042C84.8996 357.486 84.0505 357.671 83.9324 357.228C82.2342 350.854 86.6984 344.409 86.5279 337.96C86.4483 334.952 85.2776 332.02 82.2939 330.352C79.6848 328.894 76.4034 328.498 73.3637 327.849C70.2925 327.29 67.4139 326.036 64.9794 324.196C62.6603 322.259 60.7566 319.925 59.3703 317.32C56.1927 311.581 54.1505 305.351 53.3424 298.931C52.3726 291.483 52.925 283.929 54.97 276.673C55.0974 276.216 55.9066 276.41 55.7801 276.865Z" fill="white"/>
<path d="M57.3241 312.206C51.8768 313.804 46.098 311.892 43.814 307.761C43.589 307.354 44.3667 306.989 44.592 307.397C46.7317 311.267 52.0795 313.003 57.1715 311.51C57.7074 311.352 57.8569 312.05 57.3241 312.206L57.3241 312.206Z" fill="white"/>
<path d="M71.674 326.902C73.0686 324.931 74.0211 322.716 74.4736 320.39C74.9261 318.065 74.8692 315.677 74.3063 313.373C74.19 312.929 75.039 312.744 75.1552 313.187C75.7354 315.587 75.7887 318.072 75.312 320.492C74.8353 322.911 73.8385 325.215 72.3821 327.263C72.0968 327.68 71.3902 327.317 71.674 326.902Z" fill="white"/>
<path d="M53.4576 291.799C54.5271 291.686 55.5569 291.353 56.4734 290.824C57.39 290.296 58.1708 289.585 58.7603 288.742C59.0394 288.322 59.7458 288.686 59.4685 289.103C58.8131 290.032 57.9496 290.817 56.938 291.403C55.9264 291.989 54.7909 292.361 53.6101 292.495C53.3757 292.522 53.1569 292.444 53.1094 292.24C53.0963 292.139 53.1251 292.036 53.1899 291.954C53.2546 291.872 53.3504 291.817 53.4576 291.799Z" fill="white"/>
<path d="M95.1548 108.76L117.692 131.169L170.148 149.174L176.451 138.209L136.085 118.109C136.085 118.109 117.885 100.305 107.089 96.6372L95.1548 108.76Z" fill="#A0616A"/>
<path d="M175.592 151.979C179.888 151.979 183.37 148.719 183.37 144.696C183.37 140.674 179.888 137.413 175.592 137.413C171.297 137.413 167.814 140.674 167.814 144.696C167.814 148.719 171.297 151.979 175.592 151.979Z" fill="#A0616A"/>
<path d="M112.643 97.8827L96.5346 111.201L96.4588 111.219C88.9695 113.01 78.1527 104.738 70.3976 97.4836C67.8426 95.0895 66.3536 91.8764 66.2316 88.4937C66.1097 85.111 67.3639 81.8112 69.7408 79.2613C71.5077 77.3914 73.7979 76.0215 76.3527 75.3066C78.9074 74.5916 81.6248 74.5601 84.1977 75.2155L97.2907 78.5978L112.643 97.8827Z" fill="#3F3D56"/>
<path d="M130.658 362.42L141.76 362.419L147.041 322.323L130.656 322.323L130.658 362.42Z" fill="#A0616A"/>
<path d="M127.826 359.026L130.951 359.026L143.15 354.38L149.689 359.025H149.69C153.385 359.025 156.929 360.4 159.542 362.847C162.154 365.293 163.622 368.612 163.623 372.072V372.496L127.827 372.497L127.826 359.026Z" fill="#2F2E41"/>
<path d="M81.3988 362.42L92.5003 362.419L97.7815 322.323L81.3969 322.323L81.3988 362.42Z" fill="#A0616A"/>
<path d="M78.5667 359.026L81.6914 359.026L93.891 354.38L100.43 359.025H100.43C104.126 359.025 107.669 360.4 110.282 362.847C112.895 365.293 114.363 368.612 114.363 372.072V372.496L78.5673 372.497L78.5667 359.026Z" fill="#2F2E41"/>
<path d="M64.4708 189.709C64.4708 189.709 63.1745 204.276 66.4152 218.235C69.656 232.194 69.656 271.508 69.656 271.508L76.7857 348.117L98.1747 346.296L104.008 218.235L124.749 261.327L122.804 267.396L125.394 268.913C125.394 268.913 123.453 280.748 124.749 280.748C126.045 280.748 129.286 282.569 129.286 282.569L126.693 345.083L148.73 344.476L156.508 256.471L148.082 206.096L147.434 196.386L144.517 196.498L143.032 192.441L140.305 185.461L64.4708 189.709Z" fill="#2F2E41"/>
<path d="M63.3506 192.769L63.235 192.617C57.0656 184.529 66.3445 165.094 67.7439 162.277L61.8495 160.485L63.1768 149.92L63.8057 145.21L59.3006 140.991L59.2879 140.886L56.6953 119.644L52.9257 105.535C51.5054 100.201 51.6264 94.6095 53.2764 89.3341C54.9264 84.0587 58.0459 79.2894 62.3147 75.5159L71.028 67.823L81.6175 53.151H98.6941L104.549 63.5072C110.226 64.7358 115.263 67.7902 118.782 72.1385C122.301 76.4867 124.079 81.8532 123.807 87.303L122.48 114.464L127.675 148.283L127.678 154.403L133.525 160.487L132.248 166.464L136.697 168.25L138.662 176.834C139.475 177.839 144.842 184.54 144.842 186.371C144.842 186.646 144.625 186.912 144.16 187.207C140.502 189.526 120.288 194.254 111.342 190.901C101.812 187.333 63.929 192.686 63.5474 192.741L63.3506 192.769Z" fill="#3F3D56"/>
<path d="M203.393 372.278C203.393 372.372 203.373 372.466 203.335 372.554C203.297 372.641 203.24 372.721 203.169 372.788C203.098 372.855 203.013 372.908 202.92 372.944C202.827 372.981 202.727 373 202.626 373H20.9509C20.7463 373 20.5501 372.924 20.4055 372.788C20.2608 372.653 20.1796 372.469 20.1796 372.278C20.1796 372.086 20.2608 371.903 20.4055 371.767C20.5501 371.632 20.7463 371.556 20.9509 371.556H202.621C202.825 371.555 203.021 371.63 203.166 371.765C203.31 371.9 203.392 372.082 203.393 372.273V372.278Z" fill="#CCCCCC"/>
<path d="M92.3617 48.4147C104.852 48.4147 114.978 38.9332 114.978 27.2373C114.978 15.5413 104.852 6.05986 92.3617 6.05986C79.8713 6.05986 69.7458 15.5413 69.7458 27.2373C69.7458 38.9332 79.8713 48.4147 92.3617 48.4147Z" fill="#A0616A"/>
<path d="M94.5283 48.7575C91.0258 48.724 87.5327 48.4104 84.0873 47.8202C80.6762 47.0843 73.1503 41.635 71.0992 38.4158C69.5754 36.0239 68.6607 32.3243 68.1617 29.642C67.4878 26.0922 67.6177 22.4495 68.5428 18.9496C69.468 15.4498 71.1679 12.171 73.5323 9.32539C74.4438 8.1333 75.6824 7.19405 77.1171 6.60698C77.244 6.56401 77.3744 6.52637 77.506 6.49466C79.5857 6.03567 81.4714 5.00511 82.921 3.53528C83.2025 3.23771 83.5064 2.95951 83.8306 2.70283C85.4568 1.48359 87.3681 0.642036 89.4082 0.246973C92.7041 -0.494199 97.4186 0.434572 103.421 3.00985C106.436 4.30372 109.783 3.94276 112.363 3.48371C112.507 3.46117 112.656 3.47447 112.793 3.52231C112.93 3.57014 113.052 3.65084 113.146 3.75636C114.211 4.74219 115.635 5.31403 117.132 5.35695C118.047 5.41681 118.977 6.62889 120.097 8.20725C120.351 8.56554 120.647 8.98369 120.863 9.23885L120.906 8.75965L121.409 9.3076C122.201 10.1688 122.748 11.2037 122.998 12.3158C123.248 13.428 123.193 14.5814 122.839 15.6684C122.485 16.7555 121.843 17.741 120.972 18.533C120.102 19.3251 119.031 19.8981 117.861 20.1985C116.932 20.406 115.983 20.5242 115.029 20.5512C114.45 20.5858 113.852 20.6217 113.277 20.7008C111.431 21.0086 109.702 21.7593 108.258 22.8797C106.814 24.0001 105.705 25.4519 105.04 27.0934C104.883 27.4727 104.634 27.8132 104.314 28.0885C103.994 28.3637 103.611 28.5665 103.194 28.681C102.777 28.7956 102.338 28.8189 101.91 28.7492C101.482 28.6794 101.076 28.5185 100.725 28.2788C100.141 27.8298 99.4498 27.5197 98.7101 27.375C97.9704 27.2303 97.2043 27.2553 96.4771 27.4478C95.8448 27.7574 95.3453 28.2611 95.0625 28.8745C94.7204 29.5572 94.169 30.1291 93.4785 30.5171C91.1239 31.5828 90.8267 36.5488 91.547 40.7119C92.2413 44.7248 93.7519 47.6522 95.2204 47.8306C96.3508 47.9678 96.4784 48.0463 96.5553 48.236L96.624 48.4058L96.4923 48.5599C96.3642 48.6974 95.6154 48.7575 94.5283 48.7575Z" fill="#2F2E41"/>
<path d="M205.474 209.316C227.593 209.316 245.523 192.526 245.523 171.815C245.523 151.103 227.593 134.313 205.474 134.313C183.356 134.313 165.426 151.103 165.426 171.815C165.426 192.526 183.356 209.316 205.474 209.316Z" fill="#344383"/>
<path d="M201.978 186.513C201.892 186.513 201.804 186.511 201.717 186.507C200.948 186.472 200.198 186.282 199.515 185.95C198.833 185.618 198.235 185.152 197.763 184.583L191.451 176.985C190.583 175.938 190.195 174.611 190.37 173.296C190.545 171.981 191.271 170.784 192.387 169.97L192.613 169.805C193.732 168.992 195.148 168.628 196.553 168.792C197.958 168.956 199.236 169.635 200.107 170.68C200.39 171.021 200.749 171.301 201.159 171.501C201.568 171.7 202.019 171.814 202.48 171.835C202.942 171.86 203.404 171.79 203.833 171.629C204.262 171.467 204.648 171.219 204.963 170.902L217.779 158.234C218.754 157.273 220.095 156.714 221.51 156.678C222.925 156.642 224.297 157.133 225.326 158.043L225.534 158.227C226.561 159.14 227.159 160.397 227.198 161.722C227.236 163.047 226.712 164.332 225.739 165.295L205.852 184.952C205.354 185.445 204.753 185.838 204.087 186.107C203.421 186.375 202.703 186.513 201.978 186.513Z" fill="white"/>
<path d="M99.7374 109.539L115.448 136.578L161.29 166.482L170.364 157.378L136.783 128.327C136.783 128.327 124.017 106.774 114.571 100.656L99.7374 109.539Z" fill="#A0616A"/>
<path d="M167.772 170.73C172.067 170.73 175.549 167.47 175.549 163.447C175.549 159.425 172.067 156.164 167.772 156.164C163.476 156.164 159.994 159.425 159.994 163.447C159.994 167.47 163.476 170.73 167.772 170.73Z" fill="#A0616A"/>
<path d="M101.152 113.144L91.272 90.9404L94.8454 78.6703C95.5563 76.2638 96.9717 74.0916 98.9319 72.3989C100.892 70.7062 103.319 69.5607 105.938 69.0917C109.492 68.4783 113.163 69.1517 116.208 70.9758C119.253 72.7999 121.444 75.6385 122.339 78.9178C125.045 88.8651 127.123 101.797 121.658 106.914L121.602 106.966L101.152 113.144Z" fill="#3F3D56"/>
<path d="M321.5 68.7012C321.464 68.7012 321.428 68.7004 321.392 68.6987C321.076 68.6844 320.767 68.6062 320.487 68.4696C320.206 68.333 319.96 68.1411 319.766 67.9072L317.169 64.7813C316.812 64.3506 316.652 63.8048 316.724 63.2638C316.796 62.7227 317.095 62.2306 317.554 61.8953L317.647 61.8275C318.107 61.4932 318.69 61.3433 319.268 61.4108C319.846 61.4783 320.372 61.7576 320.73 62.1875C320.846 62.328 320.994 62.4432 321.163 62.5252C321.331 62.6072 321.517 62.6542 321.706 62.6628C321.896 62.6732 322.086 62.6442 322.263 62.5778C322.439 62.5115 322.598 62.4095 322.728 62.279L328 57.0675C328.401 56.6721 328.953 56.4418 329.535 56.4271C330.117 56.4124 330.682 56.6144 331.105 56.9888L331.191 57.0647C331.613 57.44 331.859 57.957 331.875 58.5021C331.891 59.0472 331.675 59.576 331.275 59.9723L323.093 68.059C322.888 68.2619 322.641 68.4236 322.367 68.534C322.093 68.6444 321.798 68.7013 321.5 68.7012Z" fill="white"/>
<path d="M445.256 297.158C449.89 300.103 455.041 303.418 456.534 308.793C456.877 309.942 456.969 311.143 456.804 312.325C456.638 313.508 456.219 314.646 455.572 315.673C454.383 317.529 452.611 318.987 450.883 320.392C448.83 322.062 446.761 323.703 445.168 325.787C444.439 326.742 446.124 327.652 446.847 326.706C449.8 322.842 454.707 320.653 457.306 316.506C460.38 311.601 458.328 305.785 454.52 301.815C452.143 299.337 449.162 297.445 446.238 295.586C445.199 294.926 444.225 296.503 445.256 297.158L445.256 297.158Z" fill="#E6E7E8"/>
<path d="M461.46 297.158C466.094 300.103 471.244 303.418 472.738 308.793C473.081 309.942 473.173 311.143 473.007 312.325C472.842 313.508 472.423 314.646 471.776 315.673C470.586 317.529 468.815 318.987 467.087 320.392C465.034 322.062 462.965 323.703 461.372 325.787C460.643 326.742 462.328 327.652 463.051 326.706C466.004 322.842 470.911 320.653 473.51 316.506C476.583 311.601 474.532 305.785 470.723 301.815C468.346 299.337 465.366 297.445 462.441 295.586C461.403 294.926 460.429 296.503 461.46 297.158L461.46 297.158Z" fill="#E6E7E8"/>
<path d="M307.22 163.728C308.25 163.073 307.276 161.496 306.238 162.156C303.314 164.014 300.333 165.907 297.956 168.384C294.147 172.355 292.096 178.171 295.17 183.076C297.769 187.222 302.676 189.411 305.629 193.276C306.351 194.221 308.037 193.311 307.308 192.357C305.715 190.272 303.646 188.632 301.593 186.962C299.865 185.557 298.093 184.099 296.904 182.243C296.257 181.216 295.838 180.077 295.672 178.895C295.507 177.713 295.599 176.511 295.942 175.363C297.435 169.987 302.586 166.673 307.22 163.728L307.22 163.728Z" fill="#E6E7E8"/>
<path d="M291.016 163.728C292.047 163.073 291.073 161.496 290.035 162.156C287.11 164.014 284.129 165.907 281.752 168.384C277.944 172.355 275.893 178.171 278.966 183.076C281.565 187.222 286.472 189.411 289.425 193.276C290.148 194.221 291.833 193.311 291.104 192.357C289.511 190.272 287.442 188.632 285.389 186.962C283.661 185.557 281.889 184.099 280.7 182.243C280.053 181.216 279.634 180.077 279.468 178.895C279.303 177.713 279.395 176.511 279.738 175.363C281.231 169.987 286.382 166.673 291.016 163.728L291.016 163.728Z" fill="#E6E7E8"/>
</g>
<defs>
<clipPath id="clip0_8_2">
<rect width="475" height="373" fill="white"/>
</clipPath>
</defs>
</svg>
