<svg width="60" height="30" viewBox="0 0 60 30" fill="none" xmlns="http://www.w3.org/2000/svg">
<g clip-path="url(#clip0_8_48)">
<path d="M10.3441 11.2905C8.12872 11.2905 6.34638 9.49452 6.34638 7.26207C6.34638 5.02968 8.12872 3.23366 10.3441 3.23366C12.5595 3.23366 14.3418 5.02968 14.3418 7.26207C14.3418 9.4777 12.5595 11.2905 10.3441 11.2905ZM10.3275 0.245911C8.51184 0.245911 6.8461 0.950886 5.61349 2.10906C5.18041 2.52868 4.56407 2.6294 3.86447 2.66297H1.24929C0.549688 2.66297 0 3.31758 0 4.10648C0 4.91217 0.549688 5.55001 1.24929 5.55001H1.99886C2.74844 5.58355 3.34809 6.2046 3.34809 6.97673V8.40345V17.4842V18.7934V21.3784C3.34809 22.184 4.16429 22.8218 4.93052 22.8218C5.68008 22.8218 6.51295 22.1673 6.51295 21.3784V18.7934V14.3957C6.51295 13.8754 6.6962 13.3047 7.52906 13.6404C7.54569 13.6572 7.57903 13.6572 7.59565 13.674C7.59565 13.674 7.61233 13.674 7.61233 13.6908C8.4452 14.0433 9.36133 14.2447 10.3275 14.2447C14.1586 14.2447 17.2735 11.1059 17.2735 7.2453C17.2735 3.38472 14.1586 0.245911 10.3275 0.245911Z" fill="#F04E98"/>
<path d="M21.671 5.55002H19.3223C18.5394 5.55002 17.9065 4.91217 17.9065 4.12326C17.9065 3.33437 18.5394 2.69653 19.3223 2.69653H24.8192C25.6021 2.69653 26.235 3.33437 26.235 4.12326V15.3021C26.235 18.357 27.5343 19.9012 30.1995 19.9012C32.2649 19.9012 33.6308 18.7934 34.2805 16.5778C34.497 15.8728 35.1966 15.4364 35.9129 15.5707L35.9962 15.5875C36.8124 15.7553 37.3121 16.561 37.0955 17.3667C36.1294 20.9083 33.6475 22.7547 30.1995 22.7547C25.8353 22.7547 23.1035 20.002 23.1035 15.3021V8.42023V6.99351C23.0869 6.18784 22.4539 5.55002 21.671 5.55002Z" fill="#F04E98"/>
<path d="M49.888 27.0182C46.207 27.0517 43.8417 25.5075 43.8084 23.2751C43.7917 22.1673 44.3081 21.6972 44.9744 21.1602C46.3569 20.0691 52.9367 20.002 54.6688 20.7909C55.6849 21.2609 55.8349 21.9491 55.8516 23.0568C55.8851 25.3732 53.4197 26.9846 49.888 27.0182ZM52.287 11.878C51.5538 12.5494 50.671 12.9187 49.622 12.9187C48.5723 12.9354 47.6728 12.6333 46.9732 11.9619C46.2237 11.3073 45.8739 10.3673 45.8572 9.15882C45.8406 7.95027 46.1903 7.04387 46.9233 6.37246C47.6229 5.70105 48.5057 5.33181 49.5551 5.33181C50.6046 5.31504 51.5041 5.66751 52.2369 6.3221C52.9367 6.97674 53.3031 7.91673 53.3198 9.09164C53.3361 10.2666 52.9697 11.1898 52.287 11.878ZM58.167 17.4171C58.3834 16.1246 58.2334 14.6307 56.7841 13.6908C56.5343 13.5397 55.7847 13.1201 55.8349 12.5158C55.8516 12.3312 55.9515 11.9451 56.0179 11.8276C56.3346 11.0052 56.5013 10.082 56.4846 9.0581C56.4846 9.02451 56.4846 9.00774 56.4846 8.97415C56.4846 8.95738 56.4846 8.95738 56.4846 8.94061C56.4846 8.90702 56.4846 8.87348 56.4846 8.83989C56.4679 8.43705 56.4177 8.03422 56.3179 7.64815C56.068 6.67463 56.3346 6.52355 56.518 6.40605L58.2836 5.58356C58.95 5.26468 59.1998 4.39183 58.8497 3.60293C58.4833 2.83082 57.6674 2.44477 56.9842 2.76368L54.7687 3.80436C54.3526 4.00578 53.9026 3.90507 53.4197 3.61972C53.3528 3.56937 53.2864 3.5358 53.2033 3.48544C52.1538 2.86439 50.9046 2.49512 49.5718 2.49512C45.7573 2.49512 42.659 5.46607 42.659 9.12523C42.659 12.7844 45.7573 15.7553 49.5718 15.7553C49.7715 15.7553 49.9883 15.7386 50.188 15.7218H50.2047C50.2382 15.7218 50.2711 15.7218 50.2879 15.7218C50.3882 15.705 50.4713 15.705 50.5711 15.6882C51.0044 15.6211 51.4205 15.5371 51.8203 15.4029C52.2536 15.2854 52.62 15.1679 52.9529 15.1679C53.9193 15.1511 55.2354 15.7553 55.1188 16.9639C55.052 17.6521 54.3688 17.5681 52.8865 17.5513H47.2231C43.0255 17.6017 40.6768 19.4984 40.7101 23.0568C40.7268 25.3732 41.6429 27.0349 43.4419 28.1595C45.2409 29.2841 47.423 29.8045 49.9382 29.7709C55.6515 29.7205 58.8 27.4042 58.9165 23.1912C58.95 22.2008 58.9165 21.7141 58.5502 20.9923C57.8169 19.5488 57.9836 18.4577 58.167 17.4171Z" fill="#F04E98"/>
<path d="M41.1099 2.66293L41.01 2.64615C40.9101 2.62936 40.8267 2.61258 40.7268 2.61258C40.0939 2.61258 39.5108 3.04899 39.311 3.68683C38.9778 4.79464 38.4614 5.63389 37.7785 6.18781C37.0955 6.74173 36.2294 7.02707 35.1966 7.02707C34.1639 7.02707 33.2977 6.74173 32.6148 6.18781C31.9318 5.63389 31.4154 4.79464 31.0823 3.68683C30.8824 3.04899 30.3161 2.61258 29.6664 2.61258C29.5665 2.61258 29.4832 2.62936 29.3833 2.64615L29.2833 2.66293C28.5837 2.79721 28.1006 3.43505 28.1006 4.12324C28.1006 4.25752 28.1173 4.3918 28.1506 4.52608C28.6503 6.32207 29.5165 7.69848 30.7159 8.62165C31.9152 9.54481 33.4143 10.0148 35.18 10.0148C36.9456 10.0148 38.4448 9.54481 39.6441 8.62165C40.8434 7.69848 41.7096 6.32207 42.2093 4.52608C42.2426 4.3918 42.2593 4.25752 42.2593 4.12324C42.2926 3.43505 41.8095 2.814 41.1099 2.66293Z" fill="#F04E98"/>
</g>
<defs>
<clipPath id="clip0_8_48">
<rect width="59.0164" height="30" fill="white"/>
</clipPath>
</defs>
</svg>
